#tb 0: 1/25
#media_type 0: video
#codec_id 0: rawvideo
#dimensions 0: 832x480
#sar 0: 0/1
0,          0,          0,        1,  1198080, 0x2c12c2be
0,          1,          1,        1,  1198080, 0x47275378
0,          2,          2,        1,  1198080, 0x5d7b0327
0,          3,          3,        1,  1198080, 0x0b15318a
